<svg xmlns="http://www.w3.org/2000/svg" viewBox="0 0 4096 2160" width="1024" height="540">
	<style>
		tspan { white-space:pre }
	</style>
	<path id="Wellness Activity Wellness  " fill="#eaaa00" d="M591.4 580.18Q591.4 614.48 625.7 614.48Q671.78 614.48 736.81 547.92Q795.69 488.53 826.41 427.09Q857.64 365.14 857.64 332.88Q857.64 327.76 856.62 322.64Q845.35 322.64 833.58 310.86L833.58 311.38Q825.9 305.23 825.9 299.09Q825.9 292.43 831.02 288.34Q836.14 284.24 844.33 284.24Q852.52 284.24 855.59 290.9Q859.18 297.04 864.3 302.16Q869.42 307.28 868.9 309.33Q871.98 313.94 878.12 313.94Q884.78 313.94 892.97 307.79Q901.16 301.65 905.77 301.65Q910.89 301.65 910.89 304.72Q910.89 310.35 901.16 315.47Q896.04 319.57 888.87 320.08L872.49 320.08Q878.63 341.07 878.63 350.29Q878.63 391.25 839.21 456.78Q800.3 522.32 738.86 573.01Q676.9 625.23 626.22 625.23Q576.04 625.23 576.04 576.08Q576.04 537.17 608.81 464.98L645.67 384.59L595.5 423.5Q571.94 442.96 547.37 466.51Q523.3 489.55 462.89 562.26L403.5 634.96Q389.16 651.34 377.9 651.34Q369.19 651.34 369.19 640.08Q369.19 628.82 378.41 610.9L477.22 468.56Q566.82 336.98 566.82 301.65Q566.82 282.19 530.98 282.19Q487.46 282.19 409.64 335.44Q367.66 364.11 335.91 407.63Q304.17 450.64 304.17 479.31Q304.17 507.47 342.06 507.47Q377.38 507.47 414.76 474.7Q428.07 463.44 430.12 463.44Q432.17 463.44 431.66 467.02Q426.02 486.48 389.67 504.4Q353.83 521.81 326.18 521.81Q319.02 521.81 316.46 521.3L315.94 521.3Q274.98 512.59 274.98 480.85Q274.98 449.1 310.31 404.56Q372.78 325.71 471.08 287.31Q521.77 267.86 554.54 267.86Q594.98 267.86 594.98 294.48Q594.98 349.78 455.72 534.61Q409.13 596.56 408.62 596.56Q410.15 596.56 461.86 538.7Q514.09 480.85 560.68 439.89Q578.6 424.02 622.63 381.52Q645.67 360.02 672.3 342.61Q678.95 338.51 691.24 338.51Q704.04 338.51 708.65 345.68Q661.54 404.05 626.22 476.75Q591.4 548.94 591.4 580.18ZM889.38 320.08L888.87 320.08L889.38 320.08ZM874.54 600.66Q868.9 600.66 864.3 599.12Q831.53 589.9 831.53 562.26Q831.53 526.42 876.58 479.31Q921.64 432.21 957.48 432.21Q969.26 432.21 976.42 438.86Q984.1 445.01 984.1 454.22Q984.1 482.9 940.58 509.01Q897.58 535.12 870.44 535.12Q866.34 535.12 863.27 534.1Q855.59 547.92 855.59 563.28Q855.59 589.9 880.68 589.9Q906.28 589.9 946.73 555.6Q977.96 530.51 999.98 502.35Q1004.58 496.21 1007.66 496.21Q1011.24 496.21 1011.24 499.28Q1011.24 502.35 1007.14 507.98Q979.5 544.34 940.58 572.5Q901.67 600.66 874.54 600.66ZM971.3 453.2Q971.3 447.06 957.99 447.06Q945.19 447.06 921.13 467.02Q888.87 493.65 870.95 522.83Q874.02 523.86 877.61 523.86Q897.06 523.86 929.32 503.38Q962.09 482.38 970.28 457.81Q971.3 455.25 971.3 453.2ZM999.98 568.4Q999.98 583.76 1016.87 583.76Q1033.77 583.76 1060.39 565.84Q1087.02 547.92 1112.1 517.2Q1118.25 509.01 1121.83 509.01Q1125.42 509.01 1125.42 512.08Q1125.42 515.15 1104.42 538.7Q1053.22 595.02 1018.92 595.02Q1002.02 595.02 990.25 587.34Q978.47 579.15 978.47 562.77Q978.47 545.87 987.18 523.86Q1002.02 489.04 1034.79 436.3Q1094.7 339.02 1119.78 339.02Q1124.9 339.02 1130.02 343.12Q1135.66 346.7 1136.17 351.31Q1124.39 367.18 1090.6 412.24Q1057.32 457.3 1044.52 477.26Q1031.72 496.72 1025.06 506.45Q1018.92 516.18 1015.85 521.81Q1012.78 526.93 1008.68 535.63Q999.98 553.04 999.98 568.4ZM1124.39 568.4Q1124.39 583.76 1141.29 583.76Q1158.18 583.76 1184.81 565.84Q1211.43 547.92 1236.52 517.2Q1242.66 509.01 1246.25 509.01Q1249.83 509.01 1249.83 512.08Q1249.83 515.15 1228.84 538.7Q1177.64 595.02 1143.34 595.02Q1126.44 595.02 1114.66 587.34Q1102.89 579.15 1102.89 562.77Q1102.89 545.87 1111.59 523.86Q1126.44 489.04 1159.21 436.3Q1219.11 339.02 1244.2 339.02Q1249.32 339.02 1254.44 343.12Q1260.07 346.7 1260.58 351.31Q1248.81 367.18 1215.02 412.24Q1181.74 457.3 1168.94 477.26Q1156.14 496.72 1149.48 506.45Q1143.34 516.18 1140.26 521.81Q1137.19 526.93 1133.1 535.63Q1124.39 553.04 1124.39 568.4ZM1311.27 432.21Q1325.1 432.21 1325.1 442.96Q1325.1 446.03 1323.56 449.1Q1277.48 513.1 1268.26 545.87Q1387.56 426.58 1413.16 426.58Q1415.72 426.06 1417.77 426.06Q1432.1 426.06 1432.1 438.86Q1432.1 441.42 1431.08 443.98Q1430.06 446.54 1410.6 471.63Q1388.07 498.26 1372.2 522.83Q1356.84 547.41 1356.84 563.79Q1356.84 580.18 1364.01 580.18Q1386.54 580.18 1442.34 518.22Q1443.37 517.2 1445.93 513.62Q1453.61 504.4 1455.14 504.4Q1456.68 504.4 1456.68 509.52Q1456.68 514.64 1449.51 522.83Q1386.02 595.02 1359.4 595.02Q1334.31 595.02 1334.31 567.38Q1334.31 539.73 1354.79 503.89L1387.56 450.64Q1352.74 476.24 1325.61 506.96Q1298.47 537.17 1275.94 565.84Q1253.93 594.51 1250.34 594.51Q1242.66 594.51 1238.06 588.37Q1233.96 581.71 1233.96 572.5Q1233.96 562.77 1240.62 546.9Q1247.27 531.02 1257.51 508.5L1226.79 540.75Q1215.53 552.02 1212.46 552.02Q1209.9 552.02 1209.9 548.94Q1209.9 545.36 1213.99 541.26Q1232.94 522.32 1246.76 504.91Q1260.07 487.5 1301.54 438.35Q1306.15 432.21 1311.27 432.21ZM1461.29 600.66Q1455.66 600.66 1451.05 599.12Q1418.28 589.9 1418.28 562.26Q1418.28 526.42 1463.34 479.31Q1508.39 432.21 1544.23 432.21Q1556.01 432.21 1563.18 438.86Q1570.86 445.01 1570.86 454.22Q1570.86 482.9 1527.34 509.01Q1484.33 535.12 1457.19 535.12Q1453.1 535.12 1450.02 534.1Q1442.34 547.92 1442.34 563.28Q1442.34 589.9 1467.43 589.9Q1493.03 589.9 1533.48 555.6Q1564.71 530.51 1586.73 502.35Q1591.34 496.21 1594.41 496.21Q1597.99 496.21 1597.99 499.28Q1597.99 502.35 1593.9 507.98Q1566.25 544.34 1527.34 572.5Q1488.42 600.66 1461.29 600.66ZM1558.06 453.2Q1558.06 447.06 1544.74 447.06Q1531.94 447.06 1507.88 467.02Q1475.62 493.65 1457.7 522.83Q1460.78 523.86 1464.36 523.86Q1483.82 523.86 1516.07 503.38Q1548.84 482.38 1557.03 457.81Q1558.06 455.25 1558.06 453.2ZM1677.35 575.57L1660.97 586.32Q1646.12 595.02 1624.1 595.02Q1602.6 595.02 1590.82 580.69Q1579.56 566.35 1571.37 535.12Q1562.15 544.34 1558.57 544.34Q1556.01 544.34 1556.01 540.75Q1556.01 537.17 1558.57 534.61Q1575.46 513.62 1615.91 474.19L1680.42 413.78Q1708.07 387.66 1713.19 387.66Q1729.58 387.66 1729.58 399.95Q1729.58 406.1 1724.46 412.24Q1719.85 417.87 1717.29 421.46Q1715.24 424.53 1712.68 427.6Q1703.46 443.47 1693.74 493.14Q1684.52 542.8 1679.4 562.26Q1721.9 561.74 1766.95 506.96Q1772.07 501.84 1774.63 501.84Q1777.19 501.84 1777.19 505.42Q1777.19 508.5 1772.58 514.13Q1742.89 548.94 1717.29 562.77Q1701.93 570.45 1677.35 575.57ZM1591.85 529.49Q1591.85 546.9 1603.11 558.16Q1614.89 568.91 1629.22 568.91Q1643.56 568.91 1651.24 563.28Q1661.48 557.65 1671.21 516.18Q1681.45 474.7 1683.5 442.96L1685.54 425.55Q1657.38 446.54 1625.13 479.82Q1593.38 513.1 1592.36 523.86Q1591.85 526.93 1591.85 529.49ZM1861.16 575.57L1844.78 586.32Q1829.93 595.02 1807.91 595.02Q1786.41 595.02 1774.63 580.69Q1763.37 566.35 1755.18 535.12Q1745.96 544.34 1742.38 544.34Q1739.82 544.34 1739.82 540.75Q1739.82 537.17 1742.38 534.61Q1759.27 513.62 1799.72 474.19L1864.23 413.78Q1891.88 387.66 1897 387.66Q1913.38 387.66 1913.38 399.95Q1913.38 406.1 1908.26 412.24Q1903.66 417.87 1901.1 421.46Q1899.05 424.53 1896.49 427.6Q1887.27 443.47 1877.54 493.14Q1868.33 542.8 1863.21 562.26Q1905.7 561.74 1950.76 506.96Q1955.88 501.84 1958.44 501.84Q1961 501.84 1961 505.42Q1961 508.5 1956.39 514.13Q1926.7 548.94 1901.1 562.77Q1885.74 570.45 1861.16 575.57ZM1775.66 529.49Q1775.66 546.9 1786.92 558.16Q1798.7 568.91 1813.03 568.91Q1827.37 568.91 1835.05 563.28Q1845.29 557.65 1855.02 516.18Q1865.26 474.7 1867.3 442.96L1869.35 425.55Q1841.19 446.54 1808.94 479.82Q1777.19 513.1 1776.17 523.86Q1775.66 526.93 1775.66 529.49ZM751.66 1062.57L801.32 1061.54Q819.75 1061.54 819.75 1064.1Q819.75 1070.76 745 1075.88Q697.38 1169.06 697.38 1202.86Q697.38 1226.41 712.23 1226.41Q717.86 1226.41 726.06 1219.75Q734.76 1212.58 736.3 1212.58Q738.34 1212.58 738.34 1215.14Q735.78 1224.36 722.47 1230.5Q709.67 1236.65 700.46 1236.65Q691.75 1236.65 686.63 1235.62Q674.34 1231.02 674.34 1205.93Q674.34 1154.22 713.77 1074.34L652.33 1075.88Q583.72 1142.95 514.6 1193.64Q411.18 1268.9 352.81 1268.9Q349.22 1268.9 345.64 1268.39Q266.79 1261.74 266.79 1187.5Q266.79 1143.46 294.44 1094.31Q331.3 1028.78 395.3 982.7Q459.3 936.1 509.99 936.1Q560.68 936.1 560.68 973.48Q560.68 998.57 545.32 1029.29Q529.96 1060.01 514.09 1068.2Q512.55 1068.71 510.5 1068.71Q508.97 1068.71 508.97 1067.69L525.86 1040.04Q543.27 1012.9 543.27 992.42Q543.27 971.94 534.06 959.66Q525.35 946.86 505.9 946.86Q465.96 946.86 410.15 991.4Q354.86 1035.94 325.67 1100.97Q297 1165.99 297 1202.34Q297 1257.13 352.81 1257.13Q406.06 1257.13 497.19 1188.52Q537.64 1158.31 628.78 1074.34Q610.86 1075.37 595.5 1077.93Q562.73 1084.07 564.78 1075.88Q566.82 1056.94 584.23 1056.94Q618.02 1061.03 641.06 1061.03Q685.1 1020.58 772.65 928.42Q831.53 866.47 844.33 866.47Q849.96 866.47 849.96 875.18Q849.96 883.88 845.35 902.31Q840.74 920.74 835.11 924.84Q823.34 933.03 813.1 947.37Q802.86 961.19 783.91 1000.1Q764.97 1038.5 751.66 1062.57ZM792.62 937.64L661.54 1060.52L691.75 1060.52Q702.5 1061.03 718.38 1061.03Q733.22 1031.85 792.62 937.64ZM828.46 1215.66Q822.82 1215.66 818.22 1214.12Q785.45 1204.9 785.45 1177.26Q785.45 1141.42 830.5 1094.31Q875.56 1047.21 911.4 1047.21Q923.18 1047.21 930.34 1053.86Q938.02 1060.01 938.02 1071.27Q938.02 1082.02 931.37 1094.31Q924.71 1106.09 911.4 1106.09Q898.09 1106.09 898.09 1097.9Q898.09 1092.26 904.74 1081Q911.91 1069.22 911.91 1068.71Q911.91 1067.69 910.38 1067.69Q896.04 1069.22 870.95 1088.17Q846.38 1107.11 837.16 1119.91L817.19 1149.1Q812.07 1157.29 809.51 1168.55Q807.46 1179.82 807.46 1185.45Q807.46 1191.08 813.61 1198.25Q820.26 1205.42 832.04 1205.42Q857.64 1205.42 895.53 1175.72Q933.42 1145.51 953.9 1118.38Q956.46 1115.3 960.04 1115.3Q963.62 1115.3 963.62 1117.35Q963.62 1119.4 961.06 1122.47Q932.9 1159.85 893.48 1188.01Q854.57 1215.66 828.46 1215.66ZM1068.07 1044.14L1141.8 1043.11Q1143.34 1044.14 1143.34 1044.65Q1143.34 1049.26 1079.34 1057.45Q1015.85 1065.64 1010.73 1067.18Q1001 1075.88 974.89 1119.4Q948.78 1162.41 948.78 1182.38Q948.78 1201.32 974.89 1201.32Q987.18 1201.32 1007.14 1193.64Q1027.11 1185.96 1037.86 1179.3Q1066.54 1161.38 1099.3 1126.57Q1106.47 1119.4 1109.03 1119.4Q1110.57 1119.4 1110.57 1122.47Q1110.57 1125.54 1102.89 1134.76Q1076.26 1167.53 1042.98 1187.5Q1003.05 1212.07 966.7 1212.07Q950.82 1212.07 940.58 1205.42Q930.86 1198.25 930.86 1177.26Q930.86 1156.26 949.29 1119.91Q967.72 1083.05 977.45 1065.13Q970.28 1066.66 965.16 1066.66Q950.31 1066.66 950.31 1054.89Q950.31 1046.18 962.6 1042.6Q964.14 1042.6 967.21 1042.09L996.9 1042.09Q1006.12 1030.31 1017.9 1014.95Q1032.23 996.52 1037.35 996.52Q1042.47 996.52 1050.15 1000.62Q1057.83 1004.71 1057.83 1010.34Q1057.83 1015.98 1033.26 1043.62Q1046.57 1044.14 1068.07 1044.14ZM1197.61 1000.1Q1205.29 1000.1 1211.94 1005.22Q1219.11 1009.83 1219.11 1016.49Q1219.11 1023.14 1212.46 1028.26Q1206.31 1032.87 1198.63 1032.87Q1190.95 1032.87 1184.3 1027.24Q1178.15 1021.61 1178.15 1014.44Q1178.15 1000.1 1197.61 1000.1ZM1104.94 1214.63Q1078.82 1214.63 1078.82 1180.84Q1078.82 1153.19 1109.03 1104.55Q1139.24 1055.4 1157.67 1054.89Q1162.79 1054.89 1168.94 1058.98Q1175.59 1063.08 1175.59 1067.18Q1173.03 1070.76 1169.45 1075.37Q1165.86 1079.46 1161.77 1084.58Q1157.67 1089.7 1150.5 1099.43Q1143.34 1108.65 1136.68 1117.35Q1098.28 1167.02 1098.28 1185.96Q1098.28 1204.39 1111.08 1204.39Q1121.83 1204.39 1140.26 1192.62Q1183.27 1165.99 1208.36 1134.25Q1217.58 1122.47 1220.65 1122.47Q1224.23 1122.47 1224.23 1126.57Q1224.23 1130.66 1212.46 1142.95Q1200.68 1155.24 1193.51 1162.41Q1186.86 1169.58 1184.3 1172.14Q1181.74 1174.18 1174.57 1180.84Q1167.91 1186.98 1164.33 1189.54Q1160.74 1192.1 1154.09 1197.22Q1147.43 1202.34 1142.31 1204.9Q1137.19 1206.95 1130.54 1210.02Q1119.78 1214.63 1104.94 1214.63ZM1340.97 1007.78Q1356.33 1007.78 1367.08 1018.02Q1377.83 1028.26 1377.83 1046.7Q1377.83 1087.14 1310.76 1148.07Q1253.93 1199.27 1219.11 1210.54Q1213.48 1210.54 1204.26 1204.39Q1195.05 1198.25 1195.05 1193.13Q1195.05 1181.86 1219.62 1116.84Q1244.2 1051.82 1253.42 1044.14Q1255.46 1042.09 1260.07 1042.09Q1264.68 1042.09 1269.8 1047.21Q1274.92 1051.82 1275.43 1058.47Q1275.43 1058.98 1249.83 1117.86Q1224.74 1176.74 1226.28 1188.01Q1248.3 1181.35 1304.62 1134.25Q1361.45 1087.14 1361.45 1049.77Q1361.45 1027.24 1338.92 1017Q1335.34 1015.46 1335.34 1012.39Q1335.34 1007.78 1340.97 1007.78ZM1467.43 1000.1Q1475.11 1000.1 1481.77 1005.22Q1488.94 1009.83 1488.94 1016.49Q1488.94 1023.14 1482.28 1028.26Q1476.14 1032.87 1468.46 1032.87Q1460.78 1032.87 1454.12 1027.24Q1447.98 1021.61 1447.98 1014.44Q1447.98 1000.1 1467.43 1000.1ZM1374.76 1214.63Q1348.65 1214.63 1348.65 1180.84Q1348.65 1153.19 1378.86 1104.55Q1409.06 1055.4 1427.5 1054.89Q1432.62 1054.89 1438.76 1058.98Q1445.42 1063.08 1445.42 1067.18Q1442.86 1070.76 1439.27 1075.37Q1435.69 1079.46 1431.59 1084.58Q1427.5 1089.7 1420.33 1099.43Q1413.16 1108.65 1406.5 1117.35Q1368.1 1167.02 1368.1 1185.96Q1368.1 1204.39 1380.9 1204.39Q1391.66 1204.39 1410.09 1192.62Q1453.1 1165.99 1478.18 1134.25Q1487.4 1122.47 1490.47 1122.47Q1494.06 1122.47 1494.06 1126.57Q1494.06 1130.66 1482.28 1142.95Q1470.5 1155.24 1463.34 1162.41Q1456.68 1169.58 1454.12 1172.14Q1451.56 1174.18 1444.39 1180.84Q1437.74 1186.98 1434.15 1189.54Q1430.57 1192.1 1423.91 1197.22Q1417.26 1202.34 1412.14 1204.9Q1407.02 1206.95 1400.36 1210.02Q1389.61 1214.63 1374.76 1214.63ZM1605.67 1044.14L1679.4 1043.11Q1680.94 1044.14 1680.94 1044.65Q1680.94 1049.26 1616.94 1057.45Q1553.45 1065.64 1548.33 1067.18Q1538.6 1075.88 1512.49 1119.4Q1486.38 1162.41 1486.38 1182.38Q1486.38 1201.32 1512.49 1201.32Q1524.78 1201.32 1544.74 1193.64Q1564.71 1185.96 1575.46 1179.3Q1604.14 1161.38 1636.9 1126.57Q1644.07 1119.4 1646.63 1119.4Q1648.17 1119.4 1648.17 1122.47Q1648.17 1125.54 1640.49 1134.76Q1613.86 1167.53 1580.58 1187.5Q1540.65 1212.07 1504.3 1212.07Q1488.42 1212.07 1478.18 1205.42Q1468.46 1198.25 1468.46 1177.26Q1468.46 1156.26 1486.89 1119.91Q1505.32 1083.05 1515.05 1065.13Q1507.88 1066.66 1502.76 1066.66Q1487.91 1066.66 1487.91 1054.89Q1487.91 1046.18 1500.2 1042.6Q1501.74 1042.6 1504.81 1042.09L1534.5 1042.09Q1543.72 1030.31 1555.5 1014.95Q1569.83 996.52 1574.95 996.52Q1580.07 996.52 1587.75 1000.62Q1595.43 1004.71 1595.43 1010.34Q1595.43 1015.98 1570.86 1043.62Q1584.17 1044.14 1605.67 1044.14ZM1595.43 1268.39Q1620.01 1299.11 1637.93 1299.11Q1667.11 1299.11 1700.9 1252.52Q1725.48 1218.22 1749.03 1165.99L1768.49 1118.89L1693.22 1177.77Q1658.41 1204.9 1637.42 1204.9Q1626.15 1204.9 1619.5 1197.22Q1612.84 1189.54 1612.84 1179.82Q1612.84 1157.8 1650.73 1107.62Q1688.62 1056.94 1706.02 1056.94Q1723.43 1056.94 1723.43 1068.71Q1723.43 1073.32 1677.86 1121.96Q1632.81 1170.09 1632.81 1186.98Q1632.81 1193.64 1641.51 1193.64Q1657.9 1193.64 1707.05 1155.24Q1756.71 1116.84 1781.8 1091.75Q1787.43 1085.1 1797.67 1071.78Q1807.4 1060.52 1819.18 1060.52Q1830.95 1060.52 1830.95 1071.78Q1830.95 1073.83 1807.91 1108.14Q1784.87 1142.44 1783.85 1144.49Q1767.98 1175.21 1735.21 1234.09Q1685.54 1313.96 1635.88 1313.96Q1619.5 1313.96 1607.21 1300.14Q1594.92 1285.8 1595.43 1268.39ZM591.4 1809.18Q591.4 1843.48 625.7 1843.48Q671.78 1843.48 736.81 1776.92Q795.69 1717.53 826.41 1656.09Q857.64 1594.14 857.64 1561.88Q857.64 1556.76 856.62 1551.64Q845.35 1551.64 833.58 1539.86L833.58 1540.38Q825.9 1534.23 825.9 1528.09Q825.9 1521.43 831.02 1517.34Q836.14 1513.24 844.33 1513.24Q852.52 1513.24 855.59 1519.9Q859.18 1526.04 864.3 1531.16Q869.42 1536.28 868.9 1538.33Q871.98 1542.94 878.12 1542.94Q884.78 1542.94 892.97 1536.79Q901.16 1530.65 905.77 1530.65Q910.89 1530.65 910.89 1533.72Q910.89 1539.35 901.16 1544.47Q896.04 1548.57 888.87 1549.08L872.49 1549.08Q878.63 1570.07 878.63 1579.29Q878.63 1620.25 839.21 1685.78Q800.3 1751.32 738.86 1802.01Q676.9 1854.23 626.22 1854.23Q576.04 1854.23 576.04 1805.08Q576.04 1766.17 608.81 1693.98L645.67 1613.59L595.5 1652.5Q571.94 1671.96 547.37 1695.51Q523.3 1718.55 462.89 1791.26L403.5 1863.96Q389.16 1880.34 377.9 1880.34Q369.19 1880.34 369.19 1869.08Q369.19 1857.82 378.41 1839.9L477.22 1697.56Q566.82 1565.98 566.82 1530.65Q566.82 1511.19 530.98 1511.19Q487.46 1511.19 409.64 1564.44Q367.66 1593.11 335.91 1636.63Q304.17 1679.64 304.17 1708.31Q304.17 1736.47 342.06 1736.47Q377.38 1736.47 414.76 1703.7Q428.07 1692.44 430.12 1692.44Q432.17 1692.44 431.66 1696.02Q426.02 1715.48 389.67 1733.4Q353.83 1750.81 326.18 1750.81Q319.02 1750.81 316.46 1750.3L315.94 1750.3Q274.98 1741.59 274.98 1709.85Q274.98 1678.1 310.31 1633.56Q372.78 1554.71 471.08 1516.31Q521.77 1496.86 554.54 1496.86Q594.98 1496.86 594.98 1523.48Q594.98 1578.78 455.72 1763.61Q409.13 1825.56 408.62 1825.56Q410.15 1825.56 461.86 1767.7Q514.09 1709.85 560.68 1668.89Q578.6 1653.02 622.63 1610.52Q645.67 1589.02 672.3 1571.61Q678.95 1567.51 691.24 1567.51Q704.04 1567.51 708.65 1574.68Q661.54 1633.05 626.22 1705.75Q591.4 1777.94 591.4 1809.18ZM889.38 1549.08L888.87 1549.08L889.38 1549.08ZM874.54 1829.66Q868.9 1829.66 864.3 1828.12Q831.53 1818.9 831.53 1791.26Q831.53 1755.42 876.58 1708.31Q921.64 1661.21 957.48 1661.21Q969.26 1661.21 976.42 1667.86Q984.1 1674.01 984.1 1683.22Q984.1 1711.9 940.58 1738.01Q897.58 1764.12 870.44 1764.12Q866.34 1764.12 863.27 1763.1Q855.59 1776.92 855.59 1792.28Q855.59 1818.9 880.68 1818.9Q906.28 1818.9 946.73 1784.6Q977.96 1759.51 999.98 1731.35Q1004.58 1725.21 1007.66 1725.21Q1011.24 1725.21 1011.24 1728.28Q1011.24 1731.35 1007.14 1736.98Q979.5 1773.34 940.58 1801.5Q901.67 1829.66 874.54 1829.66ZM971.3 1682.2Q971.3 1676.06 957.99 1676.06Q945.19 1676.06 921.13 1696.02Q888.87 1722.65 870.95 1751.83Q874.02 1752.86 877.61 1752.86Q897.06 1752.86 929.32 1732.38Q962.09 1711.38 970.28 1686.81Q971.3 1684.25 971.3 1682.2ZM999.98 1797.4Q999.98 1812.76 1016.87 1812.76Q1033.77 1812.76 1060.39 1794.84Q1087.02 1776.92 1112.1 1746.2Q1118.25 1738.01 1121.83 1738.01Q1125.42 1738.01 1125.42 1741.08Q1125.42 1744.15 1104.42 1767.7Q1053.22 1824.02 1018.92 1824.02Q1002.02 1824.02 990.25 1816.34Q978.47 1808.15 978.47 1791.77Q978.47 1774.87 987.18 1752.86Q1002.02 1718.04 1034.79 1665.3Q1094.7 1568.02 1119.78 1568.02Q1124.9 1568.02 1130.02 1572.12Q1135.66 1575.7 1136.17 1580.31Q1124.39 1596.18 1090.6 1641.24Q1057.32 1686.3 1044.52 1706.26Q1031.72 1725.72 1025.06 1735.45Q1018.92 1745.18 1015.85 1750.81Q1012.78 1755.93 1008.68 1764.63Q999.98 1782.04 999.98 1797.4ZM1124.39 1797.4Q1124.39 1812.76 1141.29 1812.76Q1158.18 1812.76 1184.81 1794.84Q1211.43 1776.92 1236.52 1746.2Q1242.66 1738.01 1246.25 1738.01Q1249.83 1738.01 1249.83 1741.08Q1249.83 1744.15 1228.84 1767.7Q1177.64 1824.02 1143.34 1824.02Q1126.44 1824.02 1114.66 1816.34Q1102.89 1808.15 1102.89 1791.77Q1102.89 1774.87 1111.59 1752.86Q1126.44 1718.04 1159.21 1665.3Q1219.11 1568.02 1244.2 1568.02Q1249.32 1568.02 1254.44 1572.12Q1260.07 1575.7 1260.58 1580.31Q1248.81 1596.18 1215.02 1641.24Q1181.74 1686.3 1168.94 1706.26Q1156.14 1725.72 1149.48 1735.45Q1143.34 1745.18 1140.26 1750.81Q1137.19 1755.93 1133.1 1764.63Q1124.39 1782.04 1124.39 1797.4ZM1311.27 1661.21Q1325.1 1661.21 1325.1 1671.96Q1325.1 1675.03 1323.56 1678.1Q1277.48 1742.1 1268.26 1774.87Q1387.56 1655.58 1413.16 1655.58Q1415.72 1655.06 1417.77 1655.06Q1432.1 1655.06 1432.1 1667.86Q1432.1 1670.42 1431.08 1672.98Q1430.06 1675.54 1410.6 1700.63Q1388.07 1727.26 1372.2 1751.83Q1356.84 1776.41 1356.84 1792.79Q1356.84 1809.18 1364.01 1809.18Q1386.54 1809.18 1442.34 1747.22Q1443.37 1746.2 1445.93 1742.62Q1453.61 1733.4 1455.14 1733.4Q1456.68 1733.4 1456.68 1738.52Q1456.68 1743.64 1449.51 1751.83Q1386.02 1824.02 1359.4 1824.02Q1334.31 1824.02 1334.31 1796.38Q1334.31 1768.73 1354.79 1732.89L1387.56 1679.64Q1352.74 1705.24 1325.61 1735.96Q1298.47 1766.17 1275.94 1794.84Q1253.93 1823.51 1250.34 1823.51Q1242.66 1823.51 1238.06 1817.37Q1233.96 1810.71 1233.96 1801.5Q1233.96 1791.77 1240.62 1775.9Q1247.27 1760.02 1257.51 1737.5L1226.79 1769.75Q1215.53 1781.02 1212.46 1781.02Q1209.9 1781.02 1209.9 1777.94Q1209.9 1774.36 1213.99 1770.26Q1232.94 1751.32 1246.76 1733.91Q1260.07 1716.5 1301.54 1667.35Q1306.15 1661.21 1311.27 1661.21ZM1461.29 1829.66Q1455.66 1829.66 1451.05 1828.12Q1418.28 1818.9 1418.28 1791.26Q1418.28 1755.42 1463.34 1708.31Q1508.39 1661.21 1544.23 1661.21Q1556.01 1661.21 1563.18 1667.86Q1570.86 1674.01 1570.86 1683.22Q1570.86 1711.9 1527.34 1738.01Q1484.33 1764.12 1457.19 1764.12Q1453.1 1764.12 1450.02 1763.1Q1442.34 1776.92 1442.34 1792.28Q1442.34 1818.9 1467.43 1818.9Q1493.03 1818.9 1533.48 1784.6Q1564.71 1759.51 1586.73 1731.35Q1591.34 1725.21 1594.41 1725.21Q1597.99 1725.21 1597.99 1728.28Q1597.99 1731.35 1593.9 1736.98Q1566.25 1773.34 1527.34 1801.5Q1488.42 1829.66 1461.29 1829.66ZM1558.06 1682.2Q1558.06 1676.06 1544.74 1676.06Q1531.94 1676.06 1507.88 1696.02Q1475.62 1722.65 1457.7 1751.83Q1460.78 1752.86 1464.36 1752.86Q1483.82 1752.86 1516.07 1732.38Q1548.84 1711.38 1557.03 1686.81Q1558.06 1684.25 1558.06 1682.2ZM1677.35 1804.57L1660.97 1815.32Q1646.12 1824.02 1624.1 1824.02Q1602.6 1824.02 1590.82 1809.69Q1579.56 1795.35 1571.37 1764.12Q1562.15 1773.34 1558.57 1773.34Q1556.01 1773.34 1556.01 1769.75Q1556.01 1766.17 1558.57 1763.61Q1575.46 1742.62 1615.91 1703.19L1680.42 1642.78Q1708.07 1616.66 1713.19 1616.66Q1729.58 1616.66 1729.58 1628.95Q1729.58 1635.1 1724.46 1641.24Q1719.85 1646.87 1717.29 1650.46Q1715.24 1653.53 1712.68 1656.6Q1703.46 1672.47 1693.74 1722.14Q1684.52 1771.8 1679.4 1791.26Q1721.9 1790.74 1766.95 1735.96Q1772.07 1730.84 1774.63 1730.84Q1777.19 1730.84 1777.19 1734.42Q1777.19 1737.5 1772.58 1743.13Q1742.89 1777.94 1717.29 1791.77Q1701.93 1799.45 1677.35 1804.57ZM1591.85 1758.49Q1591.85 1775.9 1603.11 1787.16Q1614.89 1797.91 1629.22 1797.91Q1643.56 1797.91 1651.24 1792.28Q1661.48 1786.65 1671.21 1745.18Q1681.45 1703.7 1683.5 1671.96L1685.54 1654.55Q1657.38 1675.54 1625.13 1708.82Q1593.38 1742.1 1592.36 1752.86Q1591.85 1755.93 1591.85 1758.49ZM1861.16 1804.57L1844.78 1815.32Q1829.93 1824.02 1807.91 1824.02Q1786.41 1824.02 1774.63 1809.69Q1763.37 1795.35 1755.18 1764.12Q1745.96 1773.34 1742.38 1773.34Q1739.82 1773.34 1739.82 1769.75Q1739.82 1766.17 1742.38 1763.61Q1759.27 1742.62 1799.72 1703.19L1864.23 1642.78Q1891.88 1616.66 1897 1616.66Q1913.38 1616.66 1913.38 1628.95Q1913.38 1635.1 1908.26 1641.24Q1903.66 1646.87 1901.1 1650.46Q1899.05 1653.53 1896.49 1656.6Q1887.27 1672.47 1877.54 1722.14Q1868.33 1771.8 1863.21 1791.26Q1905.7 1790.74 1950.76 1735.96Q1955.88 1730.84 1958.44 1730.84Q1961 1730.84 1961 1734.42Q1961 1737.5 1956.39 1743.13Q1926.7 1777.94 1901.1 1791.77Q1885.74 1799.45 1861.16 1804.57ZM1775.66 1758.49Q1775.66 1775.9 1786.92 1787.16Q1798.7 1797.91 1813.03 1797.91Q1827.37 1797.91 1835.05 1792.28Q1845.29 1786.65 1855.02 1745.18Q1865.26 1703.7 1867.3 1671.96L1869.35 1654.55Q1841.19 1675.54 1808.94 1708.82Q1777.19 1742.1 1776.17 1752.86Q1775.66 1755.93 1775.66 1758.49Z" />
</svg>